<?xml version="1.0" encoding="UTF-8" standalone="no"?>
<svg
   xmlns:dc="http://purl.org/dc/elements/1.1/"
   xmlns:cc="http://creativecommons.org/ns#"
   xmlns:rdf="http://www.w3.org/1999/02/22-rdf-syntax-ns#"
   xmlns:svg="http://www.w3.org/2000/svg"
   xmlns="http://www.w3.org/2000/svg"
   viewBox="0 0 637.05334 137.03999"
   height="137.03999"
   width="637.05334"
   xml:space="preserve"
   id="svg2"
   version="1.1"><metadata
     id="metadata8"><rdf:RDF><cc:Work
         rdf:about=""><dc:format>image/svg+xml</dc:format><dc:type
           rdf:resource="http://purl.org/dc/dcmitype/StillImage" /></cc:Work></rdf:RDF></metadata><defs
     id="defs6"><clipPath
       id="clipPath20"
       clipPathUnits="userSpaceOnUse"><path
         id="path18"
         d="M 0,1027.75 V 0 h 4777.9 v 1027.75 z" /></clipPath></defs><g
     transform="matrix(1.3333333,0,0,-1.3333333,0,137.04)"
     id="g10"><g
       transform="scale(0.1)"
       id="g12"><g
         id="g14"><g
           clip-path="url(#clipPath20)"
           id="g16"><path
             id="path22"
             style="fill:#ffffff;fill-opacity:1;fill-rule:nonzero;stroke:none"
             d="M 339.188,306.844 V 720.902 H 688.555 L 339.188,306.844" /><path
             id="path24"
             style="fill:#ffffff;fill-opacity:1;fill-rule:nonzero;stroke:none"
             d="m 513.871,947.512 c -239.105,0 -433.6327,-194.528 -433.6327,-433.641 0,-239.109 194.5277,-433.6405 433.6327,-433.6405 239.106,0 433.641,194.5315 433.641,433.6405 0,239.113 -194.535,433.641 -433.641,433.641 z M 513.871,0 C 230.523,0 0,230.523 0,513.871 0,797.223 230.523,1027.75 513.871,1027.75 797.227,1027.75 1027.75,797.223 1027.75,513.871 1027.75,230.523 797.227,0 513.871,0" /><path
             id="path26"
             style="fill:#ffffff;fill-opacity:1;fill-rule:nonzero;stroke:none"
             d="M 2246.09,482.352 2191.04,616.703 2136,482.352 Z m -95.89,243.851 h 84.05 l 177.57,-417.281 h -95.3 l -37.88,92.93 h -175.19 l -37.88,-92.93 h -92.93 l 177.56,417.281" /><path
             id="path28"
             style="fill:#ffffff;fill-opacity:1;fill-rule:nonzero;stroke:none"
             d="m 2698.8,308.922 h 91.1602 v 414.32 H 2698.8 Z" /><path
             id="path30"
             style="fill:#ffffff;fill-opacity:1;fill-rule:nonzero;stroke:none"
             d="m 4449.99,369.293 53.85,64.519 c 37.31,-30.781 76.37,-50.308 123.71,-50.308 37.29,0 59.79,14.793 59.79,39.058 v 1.184 c 0,23.086 -14.2,34.922 -83.46,52.676 -83.46,21.308 -137.32,44.394 -137.32,126.672 v 1.179 c 0,75.172 60.37,124.887 145.02,124.887 60.37,0 111.85,-18.937 153.88,-52.676 l -47.34,-68.66 c -36.7,25.453 -72.81,40.844 -107.73,40.844 -34.93,0 -53.27,-15.98 -53.27,-36.109 v -1.18 c 0,-27.227 17.76,-36.109 89.38,-54.453 84.04,-21.903 131.4,-52.086 131.4,-124.305 v -1.18 c 0,-82.273 -62.75,-128.437 -152.12,-128.437 -62.74,0 -126.08,21.894 -175.79,66.289" /><path
             id="path32"
             style="fill:#ffffff;fill-opacity:1;fill-rule:nonzero;stroke:none"
             d="M 1733.21,723.242 H 1632.06 L 1460.13,539.52 v 183.722 h -91.15 v -414.32 h 91.15 v 180.555 l 171.93,-183.731 h 101.15 l -195.34,208.75 195.34,208.746" /><path
             id="path34"
             style="fill:#ffffff;fill-opacity:1;fill-rule:nonzero;stroke:none"
             d="M 3275.72,515.598 H 3203.5 V 642.27 h 70.44 c 45.57,0 73.98,-21.903 73.98,-62.747 v -1.183 c 0,-35.512 -26.62,-62.742 -72.2,-62.742 z m 67.19,-72.938 c 58.24,19.328 98.55,64.856 98.55,135.406 v 1.207 c 0,84.918 -59.95,143.719 -159.14,143.719 H 3112.47 V 307.254 h 91.44 v 175.855 l 163.9,-175.156 h 101.15 L 3342.91,442.66" /><path
             id="path36"
             style="fill:#ffffff;fill-opacity:1;fill-rule:nonzero;stroke:none"
             d="m 3955.07,652.363 c -74.45,0 -135.02,-60.57 -135.02,-135.019 0,-74.449 60.57,-135.024 135.02,-135.024 74.46,0 135.02,60.575 135.02,135.024 0,74.449 -60.56,135.019 -135.02,135.019 z m 0,-350.043 c -118.56,0 -215.02,96.453 -215.02,215.024 0,118.566 96.46,215.019 215.02,215.019 118.57,0 215.02,-96.453 215.02,-215.019 0,-118.571 -96.45,-215.024 -215.02,-215.024" /></g></g></g></g></svg>