<?xml version="1.0" encoding="UTF-8" standalone="no"?>
<!-- Created with Inkscape (http://www.inkscape.org/) -->

<svg
   xmlns:dc="http://purl.org/dc/elements/1.1/"
   xmlns:cc="http://creativecommons.org/ns#"
   xmlns:rdf="http://www.w3.org/1999/02/22-rdf-syntax-ns#"
   xmlns:svg="http://www.w3.org/2000/svg"
   xmlns="http://www.w3.org/2000/svg"
   xmlns:sodipodi="http://sodipodi.sourceforge.net/DTD/sodipodi-0.dtd"
   xmlns:inkscape="http://www.inkscape.org/namespaces/inkscape"
   id="svg2985"
   version="1.1"
   inkscape:version="0.48.4 r9939"
   width="2000"
   height="1000"
   sodipodi:docname="polygon_background.svg">
  <metadata
     id="metadata2991">
    <rdf:RDF>
      <cc:Work
         rdf:about="">
        <dc:format>image/svg+xml</dc:format>
        <dc:type
           rdf:resource="http://purl.org/dc/dcmitype/StillImage" />
      </cc:Work>
    </rdf:RDF>
  </metadata>
  <defs
     id="defs2989" />
  <sodipodi:namedview
     pagecolor="#ffffff"
     bordercolor="#666666"
     borderopacity="1"
     objecttolerance="10"
     gridtolerance="10"
     guidetolerance="10"
     inkscape:pageopacity="0"
     inkscape:pageshadow="2"
     inkscape:window-width="1855"
     inkscape:window-height="1056"
     id="namedview2987"
     showgrid="false"
     inkscape:zoom="0.70710678"
     inkscape:cx="941.50277"
     inkscape:cy="482.94877"
     inkscape:window-x="65"
     inkscape:window-y="24"
     inkscape:window-maximized="1"
     inkscape:current-layer="svg2985" />
  <g
     inkscape:groupmode="layer"
     id="layer1"
     inkscape:label="Layer"
     style="display:inline" />
  <path
     style="fill:none;stroke:#db2c27;stroke-width:1px;stroke-linecap:butt;stroke-linejoin:miter;stroke-opacity:1"
     d="m 881,345.5 165,-77.5 5.5,230.5 z"
     id="path2996"
     inkscape:connector-curvature="0" />
  <path
     style="fill:none;stroke:#db2c27;stroke-width:1px;stroke-linecap:butt;stroke-linejoin:miter;stroke-opacity:1"
     d="m 1305.6727,472.14479 18.3847,-119.1475 46.3155,112.42998 z"
     id="path3036"
     inkscape:connector-curvature="0" />
  <path
     style="fill:none;stroke:#db2c27;stroke-width:1px;stroke-linecap:butt;stroke-linejoin:miter;stroke-opacity:1"
     d="m 1251.579,622.40498 -84.1457,-114.90485 -61.8718,147.43176 z"
     id="path3038"
     inkscape:connector-curvature="0" />
  <path
     style="fill:none;stroke:#db2c27;stroke-width:1px;stroke-linecap:butt;stroke-linejoin:miter;stroke-opacity:1"
     d="M 624.25,472.5 667.5,539 784,470.75 z"
     id="path3040"
     inkscape:connector-curvature="0" />
  <path
     style="fill:none;stroke:#db2c27;stroke-width:1px;stroke-linecap:butt;stroke-linejoin:miter;stroke-opacity:1"
     d="m 772,388 -69,-101 11,56.5 z"
     id="path3042"
     inkscape:connector-curvature="0" />
  <path
     style="fill:none;stroke:#db2c27;stroke-width:1px;stroke-linecap:butt;stroke-linejoin:miter;stroke-opacity:1"
     d="M 604.22275,410.98005 436.63844,294.30743 416.48589,345.21912 z"
     id="path3044"
     inkscape:connector-curvature="0" />
  <path
     style="fill:none;stroke:#db2c27;stroke-width:1px;stroke-linecap:butt;stroke-linejoin:miter;stroke-opacity:1"
     d="M 641.0744,347.36005 465.35837,221.49504 702.59269,287.25597 z"
     id="path3046"
     inkscape:connector-curvature="0" />
  <path
     style="fill:none;stroke:#db2c27;stroke-width:1px;stroke-linecap:butt;stroke-linejoin:miter;stroke-opacity:1"
     d="M 899,304 839.86608,102.32794 765.97342,197.61058 z"
     id="path3048"
     inkscape:connector-curvature="0" />
  <path
     style="fill:none;stroke:#db2c27;stroke-width:1px;stroke-linecap:butt;stroke-linejoin:miter;stroke-opacity:1"
     d="m 931.12598,902.25227 -5.04505,-185.72069 -266.32668,86.812 z"
     id="path3050"
     inkscape:connector-curvature="0"
     sodipodi:nodetypes="cccc" />
  <path
     inkscape:connector-curvature="0"
     id="path3054"
     d="M 1207.0268,828.4685 1105.8106,654.72978 1240.1349,743.964 z"
     style="fill:none;stroke:#db2c27;stroke-width:1px;stroke-linecap:butt;stroke-linejoin:miter;stroke-opacity:1" />
  <path
     style="fill:none;stroke:#db2c27;stroke-width:1px;stroke-linecap:butt;stroke-linejoin:miter;stroke-opacity:1"
     d="M 610,772.5 601.5,597 738,599 z"
     id="path3193"
     inkscape:connector-curvature="0" />
  <path
     style="fill:none;stroke:#db2c27;stroke-width:1px;stroke-linecap:butt;stroke-linejoin:miter;stroke-opacity:1"
     d="M 1053.5,89 898.5,89.5 1047,270 z"
     id="path3195"
     inkscape:connector-curvature="0" />
  <path
     style="fill:none;stroke:#db2c27;stroke-width:1px;stroke-linecap:butt;stroke-linejoin:miter;stroke-opacity:1"
     d="M 1153,109.5 1054,89 1139.5,231.5 z"
     id="path3197"
     inkscape:connector-curvature="0" />
  <path
     style="fill:none;stroke:#db2c27;stroke-width:1px;stroke-linecap:butt;stroke-linejoin:miter;stroke-opacity:1"
     d="m 926.5,716.5 -118,-118 -149,204.5 z"
     id="path3199"
     inkscape:connector-curvature="0" />
  <path
     style="fill:none;stroke:#db2c27;stroke-width:1px;stroke-linecap:butt;stroke-linejoin:miter;stroke-opacity:1"
     d="m 1442,721 -72,-257 -118.5,159.5 18.5,93 z"
     id="path3201"
     inkscape:connector-curvature="0" />
  <path
     style="fill:none;stroke:#db2c27;stroke-width:1px;stroke-linecap:butt;stroke-linejoin:miter;stroke-opacity:1"
     d="m 1323.5,354 19,-235 -127.5,70 z"
     id="path3203"
     inkscape:connector-curvature="0" />
  <path
     style="fill:none;stroke:#db2c27;stroke-width:1px;stroke-linecap:butt;stroke-linejoin:miter;stroke-opacity:1"
     d="m 1499.5,495.5 119,-69.5 29.5,177 -38.5,28 z"
     id="path3205"
     inkscape:connector-curvature="0" />
  <path
     style="fill:none;stroke:#db2c27;stroke-width:1px;stroke-linecap:butt;stroke-linejoin:miter;stroke-opacity:1"
     d="m 1476.5,350.5 -105.5,114 127.5,30 z"
     id="path3207"
     inkscape:connector-curvature="0" />
  <path
     style="fill:none;stroke:#db2c27;stroke-width:1px;stroke-linecap:butt;stroke-linejoin:miter;stroke-opacity:1"
     d="m 507,587 -90.5,-241.5 -199,73 z"
     id="path3209"
     inkscape:connector-curvature="0" />
  <path
     style="fill:none;stroke:#db2c27;stroke-width:1px;stroke-linecap:butt;stroke-linejoin:miter;stroke-opacity:1"
     d="M 510,751.5 507.17677,587.38388 362.5,674.5 z"
     id="path3211"
     inkscape:connector-curvature="0"
     sodipodi:nodetypes="cccc" />
  <path
     style="fill:none;stroke:#db2c27;stroke-width:1px;stroke-linecap:butt;stroke-linejoin:miter;stroke-opacity:1"
     d="M 528,522.5 604.35355,411.23744 623,473 589.5,553.5 z"
     id="path3213"
     inkscape:connector-curvature="0"
     sodipodi:nodetypes="ccccc" />
  <path
     style="fill:none;stroke:#db2c27;stroke-width:1px;stroke-linecap:butt;stroke-linejoin:miter;stroke-opacity:1"
     d="m 931,902 69,-233.5 206,161 z"
     id="path3215"
     inkscape:connector-curvature="0"
     sodipodi:nodetypes="cccc" />
  <path
     style="fill:none;stroke:#db2c27;stroke-width:1px;stroke-linecap:butt;stroke-linejoin:miter;stroke-opacity:1"
     d="M 893,465.5 880.5,345 772,388 z"
     id="path3217"
     inkscape:connector-curvature="0" />
  <path
     style="fill:none;stroke:#db2c27;stroke-width:1px;stroke-linecap:butt;stroke-linejoin:miter;stroke-opacity:1"
     d="M 766.5,198.25 703.75,288 621.5,76.499999 z"
     id="path3219"
     inkscape:connector-curvature="0" />
  <path
     style="fill:none;stroke:#db2c27;stroke-width:1px;stroke-linecap:butt;stroke-linejoin:miter;stroke-opacity:1"
     d="M 1342.7958,119.65206 1313.8044,-0.20254276 1444.9727,45.759398 z"
     id="path3221"
     inkscape:connector-curvature="0"
     sodipodi:nodetypes="cccc" />
  <path
     style="fill:none;stroke:#db2c27;stroke-width:1px;stroke-linecap:butt;stroke-linejoin:miter;stroke-opacity:1"
     d="M 1442.5,720.5 1608.5,630 1487,805.5 z"
     id="path3223"
     inkscape:connector-curvature="0" />
  <path
     style="fill:none;stroke:#db2c27;stroke-width:1px;stroke-linecap:butt;stroke-linejoin:miter;stroke-opacity:1"
     d="m 1205.5,830 188,6.5 -69.5,85 z"
     id="path3225"
     inkscape:connector-curvature="0" />
  <path
     style="fill:none;stroke:#db2c27;stroke-width:1px;stroke-linecap:butt;stroke-linejoin:miter;stroke-opacity:1"
     d="M 609.5,772 454,876.5 599,931 z"
     id="path3227"
     inkscape:connector-curvature="0" />
  <path
     style="fill:none;stroke:#db2c27;stroke-width:1px;stroke-linecap:butt;stroke-linejoin:miter;stroke-opacity:1"
     d="M 361.76256,674.43934 218.5,417.5 l -29,245.5 87,34.5 z"
     id="path3229"
     inkscape:connector-curvature="0"
     sodipodi:nodetypes="ccccc" />
  <path
     style="fill:none;stroke:#db2c27;stroke-width:1px;stroke-linecap:butt;stroke-linejoin:miter;stroke-opacity:1"
     d="m 1627.4063,139.09749 -8.4853,287.08536 124.8043,-74.59977 z"
     id="path3231"
     inkscape:connector-curvature="0" />
  <path
     style="fill:none;stroke:#db2c27;stroke-width:1px;stroke-linecap:butt;stroke-linejoin:miter;stroke-opacity:1"
     d="M 465.98337,222.53609 542.3509,103.74215 403.05087,142.63303 z"
     id="path3233"
     inkscape:connector-curvature="0"
     sodipodi:nodetypes="cccc" />
  <path
     style="fill:none;stroke:#db2c27;stroke-width:1px;stroke-linecap:butt;stroke-linejoin:miter;stroke-opacity:1"
     d="m 1627.4063,138.39039 -168.9986,51.97234 18.7384,160.51324 z"
     id="path3381"
     inkscape:connector-curvature="0" />
  <path
     style="fill:none;stroke:#db2c27;stroke-width:1px;stroke-linecap:butt;stroke-linejoin:miter;stroke-opacity:1"
     d="m 1735.24,479.56941 -60.4576,108.18734 68.5894,73.5391 z"
     id="path3383"
     inkscape:connector-curvature="0" />
  <path
     style="fill:none;stroke:#db2c27;stroke-width:1px;stroke-linecap:butt;stroke-linejoin:miter;stroke-opacity:1"
     d="m 1458.5845,190.36273 -134.5271,163.34167 151.6745,-2.82843 143.1891,75.30688"
     id="path3024"
     inkscape:connector-curvature="0"
     sodipodi:nodetypes="cccc" />
  <path
     style="fill:none;stroke:#db2c27;stroke-width:1px;stroke-linecap:butt;stroke-linejoin:miter;stroke-opacity:1"
     d="m 1627.2295,137.86005 -143.0124,-22.09708 -26.1629,74.59976 -9.1924,-8.48528 35.7089,-65.76093 -142.1285,4.24264 106.4195,61.51829 -124.8043,171.82695"
     id="path3026"
     inkscape:connector-curvature="0"
     sodipodi:nodetypes="cccccccc" />
  <path
     style="fill:none;stroke:#db2c27;stroke-width:1px;stroke-linecap:butt;stroke-linejoin:miter;stroke-opacity:1"
     d="m 1369.3123,464.72017 -90.8632,43.84062 26.3397,-36.59278 -32.7037,9.01561 -41.0122,-97.93429 74.2462,88.7419"
     id="path3028"
     inkscape:connector-curvature="0"
     sodipodi:nodetypes="cccccc" />
  <path
     style="fill:none;stroke:#db2c27;stroke-width:1px;stroke-linecap:butt;stroke-linejoin:miter;stroke-opacity:1"
     d="m 1324.0574,353.35085 -93.338,29.69848 -16.2635,-194.45436 -75.3069,42.77996 91.9239,152.38151 -184.5549,-114.5513"
     id="path3030"
     inkscape:connector-curvature="0"
     sodipodi:nodetypes="cccccc" />
  <path
     style="fill:none;stroke:#db2c27;stroke-width:1px;stroke-linecap:butt;stroke-linejoin:miter;stroke-opacity:1"
     d="m 1080,530 -80,138.25 51.5,-169.75 -158.24999,-32.75 106,202.25 -30,11.5 -76,-213.75 -84,132.25 160.125,81.5"
     id="path3806"
     inkscape:connector-curvature="0"
     sodipodi:nodetypes="ccccccccc" />
  <path
     style="fill:none;stroke:#db2c27;stroke-width:1px;stroke-linecap:butt;stroke-linejoin:miter;stroke-opacity:1"
     d="m 1240.2653,743.32024 10.9602,-122.68303 27.5771,-113.13708 -6.7175,-26.87006 -104.2982,26.87006 63.6396,-124.4508 -179.6052,115.61196 114.5513,7.77818 -86.9741,23.68807 -28.6378,-32.52691"
     id="path3797" />
  <path
     style="fill:none;stroke:#db2c27;stroke-width:1px;stroke-linecap:butt;stroke-linejoin:miter;stroke-opacity:1"
     d="m 783.47432,0.85810944 56.21499,101.46982056 57.6292,-13.435026 1.76777,215.314016 147.78532,-36.06244 91.5703,-37.47666"
     id="path3799"
     inkscape:connector-curvature="0" />
  <path
     style="fill:none;stroke:#db2c27;stroke-width:1px;stroke-linecap:butt;stroke-linejoin:miter;stroke-opacity:1"
     d="M 1048.6394,0.15100265 1039.0934,62.729953 898.37917,87.832244 925.24923,0.50455605"
     id="path3801"
     inkscape:connector-curvature="0" />
  <path
     style="fill:none;stroke:#db2c27;stroke-width:1px;stroke-linecap:butt;stroke-linejoin:miter;stroke-opacity:1"
     d="m 892.5,466.25 -96.75,9.75 -84.25,84.5 26.25,39 71.25,-1.25 -13.5,-122.5 -9.75,-6 -74.25,90.5 -44,-21.5"
     id="path3808"
     inkscape:connector-curvature="0" />
  <path
     style="fill:none;stroke:#db2c27;stroke-width:1px;stroke-linecap:butt;stroke-linejoin:miter;stroke-opacity:1"
     d="M 599.08734,930.70354 658.66997,803.07076 610.23315,772.31162 510.5311,750.74486 454.66966,875.90276 633.56768,976.66548 z"
     id="path3810"
     inkscape:connector-curvature="0"
     sodipodi:nodetypes="ccccccc" />
  <path
     style="fill:none;stroke:#db2c27;stroke-width:1px;stroke-linecap:butt;stroke-linejoin:miter;stroke-opacity:1"
     d="m 738.57303,598.7169 -79.90306,204.70741 88.7419,196.22214"
     id="path3812"
     inkscape:connector-curvature="0" />
  <path
     style="fill:none;stroke:#db2c27;stroke-width:1px;stroke-linecap:butt;stroke-linejoin:miter;stroke-opacity:1"
     d="m 711.70298,560.53314 -109.95511,36.76955 65.40738,-59.04342 -76.36753,16.26346 -84.14571,32.52691 77.42819,5.65685 -73.5391,157.33126 89.80256,-152.38151 -9.8995,-43.48707 -6.0104,38.53732 16.617,4.24264"
     id="path3814"
     inkscape:connector-curvature="0" />
  <path
     style="fill:none;stroke:#db2c27;stroke-width:1px;stroke-linecap:butt;stroke-linejoin:miter;stroke-opacity:1"
     d="m 416.48589,345.21912 112.42998,177.83736 -21.56675,63.99316"
     id="path3816"
     inkscape:connector-curvature="0" />
  <path
     style="fill:none;stroke:#db2c27;stroke-width:1px;stroke-linecap:butt;stroke-linejoin:miter;stroke-opacity:1"
     d="m 795.25,476.25 -23,-89 13.5,82.5 -47.75,-96.25 -113.75,99 64,-120 -83.75,59 35.75,-64 48,5 25.75,-8.75 24.25,29.5 33.25,14.5"
     id="path3818"
     inkscape:connector-curvature="0" />
  <path
     style="fill:none;stroke:#db2c27;stroke-width:1px;stroke-linecap:butt;stroke-linejoin:miter;stroke-opacity:1"
     d="M 737.5,373.5 687.75,352.75 703.25,288.5 880.5,345.75 766.25,198 732.5,53.249999 838.5,101.25"
     id="path3820"
     inkscape:connector-curvature="0" />
  <path
     style="fill:none;stroke:#db2c27;stroke-width:1px;stroke-linecap:butt;stroke-linejoin:miter;stroke-opacity:1"
     d="m 1106.2686,654.93189 -106.0661,13.43503 -73.53906,48.79037"
     id="path3822"
     inkscape:connector-curvature="0" />
  <path
     style="fill:none;stroke:#db2c27;stroke-width:1px;stroke-linecap:butt;stroke-linejoin:miter;stroke-opacity:1"
     d="M 1215.5166,189.65563 1152.5841,109.75256 1039.0934,63.260291 972.97893,-0.90964956"
     id="path3824"
     inkscape:connector-curvature="0"
     sodipodi:nodetypes="cccc" />
  <path
     style="fill:none;stroke:#db2c27;stroke-width:1px;stroke-linecap:butt;stroke-linejoin:miter;stroke-opacity:1"
     d="M 1069.1455,-0.20254278 1152.9376,109.39901 1125.0069,-0.55609617"
     id="path3826"
     inkscape:connector-curvature="0" />
  <path
     style="fill:none;stroke:#db2c27;stroke-width:1px;stroke-linecap:butt;stroke-linejoin:miter;stroke-opacity:1"
     d="M 1298.6016,-0.20254278 1153.9983,110.10612 l 187.7368,9.19238"
     id="path3828"
     inkscape:connector-curvature="0" />
  <path
     style="fill:none;stroke:#db2c27;stroke-width:1px;stroke-linecap:butt;stroke-linejoin:miter;stroke-opacity:1"
     d="m 1442.4978,720.69282 -48.4368,114.5513 -123.3901,-118.79394 -30.0521,27.22361 152.028,90.86322 39.598,47.0226 -106.7731,39.59798 -32.8805,19.44544 -85.9135,-111.01576 -12.7279,90.15611 -75.6604,41.7193 88.0348,-131.87541"
     id="path3830"
     inkscape:connector-curvature="0" />
  <path
     style="fill:none;stroke:#db2c27;stroke-width:1px;stroke-linecap:butt;stroke-linejoin:miter;stroke-opacity:1"
     d="m 1441.5,-1.0000005 3,47.4999995 40,69.500001 12.2929,-84.323224 -51.3839,13.762563"
     id="path3832"
     inkscape:connector-curvature="0"
     sodipodi:nodetypes="ccccc" />
  <path
     style="fill:none;stroke:#db2c27;stroke-width:1px;stroke-linecap:butt;stroke-linejoin:miter;stroke-opacity:1"
     d="M 1481,-5.2763619e-7 1497.5,31.999999 1627,137.5 1744.5,0.99999947"
     id="path3834"
     inkscape:connector-curvature="0" />
  <path
     style="fill:none;stroke:#db2c27;stroke-width:1px;stroke-linecap:butt;stroke-linejoin:miter;stroke-opacity:1"
     d="M 1815.5,-1.0000005 1805.5,82 1628,137.5 1795,247 l -4.5,-117 15.5,-49 163.25,85"
     id="path3836"
     inkscape:connector-curvature="0"
     sodipodi:nodetypes="ccccccc" />
  <path
     style="fill:none;stroke:#db2c27;stroke-width:1px;stroke-linecap:butt;stroke-linejoin:miter;stroke-opacity:1"
     d="M 1960.5,-5.2763619e-7 1998.5,96.5 1969,166 l -173,81 -53,105 -22.5,74 -101,-0.5 115,54 -13,-54 75.5,59 -53,-134.5 132,-40.5 -80,-62 168,8.5 -87,53.5 -80,173.5 131.5,19 35.5,-43 -87,-148.5"
     id="path3838"
     inkscape:connector-curvature="0"
     sodipodi:nodetypes="ccccccccccccccccccc" />
  <path
     style="fill:none;stroke:#db2c27;stroke-width:1px;stroke-linecap:butt;stroke-linejoin:miter;stroke-opacity:1"
     d="m 1928,503 -15.5,111.5 -120.5,-113 4,-19.5 -60,-1 55.5,19.5 -13.5,28.5 -43,-48.5"
     id="path3842"
     inkscape:connector-curvature="0" />
  <path
     style="fill:none;stroke:#db2c27;stroke-width:1px;stroke-linecap:butt;stroke-linejoin:miter;stroke-opacity:1"
     d="m 1619.5,425 55.5,162.5 -26,16 12,95.5 -51.7929,-67.88388"
     id="path3844"
     inkscape:connector-curvature="0"
     sodipodi:nodetypes="ccccc" />
  <path
     style="fill:none;stroke:#db2c27;stroke-width:1px;stroke-linecap:butt;stroke-linejoin:miter;stroke-opacity:1"
     d="m 1912.5,615 -13.5,37 -120,-124 -34.5,133 154.125,-8.625 4.0303,98.32322 L 1742.5,661 l 53,135 107.5,-45.5 43,87 55,-88.5 -97.9482,1.5 17.4482,-74 -22.5,-25"
     id="path3846"
     inkscape:connector-curvature="0"
     sodipodi:nodetypes="cccccccccccccc" />
  <path
     style="fill:none;stroke:#db2c27;stroke-width:1px;stroke-linecap:butt;stroke-linejoin:miter;stroke-opacity:1"
     d="m 1743,662 -81.5,37.5 -94.5,62 71.5,46 -12.5,-31.5 35.5,-76 3,48.5 z"
     id="path3848"
     inkscape:connector-curvature="0" />
  <path
     style="fill:none;stroke:#db2c27;stroke-width:1px;stroke-linecap:butt;stroke-linejoin:miter;stroke-opacity:1"
     d="m 2001.5,890.5 -74.5,70 18.7955,-122.73483 L 1796,797 1639,808 1695.5,971.5 1795.0303,796.91421 1861,957 1946,838.05806"
     id="path3850"
     inkscape:connector-curvature="0"
     sodipodi:nodetypes="ccccccccc" />
  <path
     style="fill:none;stroke:#db2c27;stroke-width:1px;stroke-linecap:butt;stroke-linejoin:miter;stroke-opacity:1"
     d="m 1441.4372,720.33927 98.6414,7.42462 26.87,32.88046 -79.5495,45.60839 -93.3381,30.05204"
     id="path3852"
     inkscape:connector-curvature="0" />
  <path
     style="fill:none;stroke:#db2c27;stroke-width:1px;stroke-linecap:butt;stroke-linejoin:miter;stroke-opacity:1"
     d="m 1639.7806,808.02051 -36.0624,117.02617 -85.3831,75.30692 -50.3814,-103.59119 -36.416,-15.2028 55.8614,-75.66042 -18.7383,90.50967 51.9723,-25.8094 -33.9411,-64.70027"
     id="path3854"
     inkscape:connector-curvature="0"
     sodipodi:nodetypes="ccccccccc" />
  <path
     style="fill:none;stroke:#db2c27;stroke-width:1px;stroke-linecap:butt;stroke-linejoin:miter;stroke-opacity:1"
     d="m 1568.0093,760.99791 -47.7297,109.248 118.7939,-61.87185 -84.1457,97.93429 -34.2947,-36.416"
     id="path3860"
     inkscape:connector-curvature="0" />
  <path
     style="fill:none;stroke:#db2c27;stroke-width:1px;stroke-linecap:butt;stroke-linejoin:miter;stroke-opacity:1"
     d="m 1468.3072,897.46952 86.2671,9.72272 -36.5928,92.98456"
     id="path3862"
     inkscape:connector-curvature="0"
     sodipodi:nodetypes="ccc" />
  <path
     style="fill:none;stroke:#db2c27;stroke-width:1px;stroke-linecap:butt;stroke-linejoin:miter;stroke-opacity:1"
     d="m 1695.9956,971.36218 -91.2168,-46.3155 -50.5581,-18.03122"
     id="path3864"
     inkscape:connector-curvature="0" />
  <path
     style="fill:none;stroke:#db2c27;stroke-width:1px;stroke-linecap:butt;stroke-linejoin:miter;stroke-opacity:1"
     d="m 1468.3072,896.0553 -28.2842,54.80078 -8.4853,-69.29647"
     id="path3866"
     inkscape:connector-curvature="0" />
  <path
     style="fill:none;stroke:#db2c27;stroke-width:1px;stroke-linecap:butt;stroke-linejoin:miter;stroke-opacity:1"
     d="m 1323.7039,921.15759 115.9655,30.58237 -38.5373,49.67424"
     id="path3868"
     inkscape:connector-curvature="0"
     sodipodi:nodetypes="ccc" />
  <path
     style="fill:none;stroke:#db2c27;stroke-width:1px;stroke-linecap:butt;stroke-linejoin:miter;stroke-opacity:1"
     d="m 1291.5305,940.95658 -97.5807,-21.56675 -23.3345,54.80077 z"
     id="path3870"
     inkscape:connector-curvature="0" />
  <path
     style="fill:none;stroke:#db2c27;stroke-width:1px;stroke-linecap:butt;stroke-linejoin:miter;stroke-opacity:1"
     d="m 641.34585,349.10821 -204.35386,-54.44722 29.34493,-72.47845 -76.01398,-41.36575 44.90128,56.9221 2.82843,56.56854"
     id="path3872"
     inkscape:connector-curvature="0" />
  <path
     style="fill:none;stroke:#db2c27;stroke-width:1px;stroke-linecap:butt;stroke-linejoin:miter;stroke-opacity:1"
     d="m 467.39758,222.88965 -32.52691,14.49569 -105.35891,63.99316 86.97413,44.54773 -109.60155,-1.41422 23.33453,-42.77996 59.75052,-121.62236 13.62437,-38.16232"
     id="path3874"
     inkscape:connector-curvature="0"
     sodipodi:nodetypes="cccccccc" />
  <path
     style="fill:none;stroke:#db2c27;stroke-width:1px;stroke-linecap:butt;stroke-linejoin:miter;stroke-opacity:1"
     d="M 702.86414,288.65058 543.05801,103.3886 621.19331,77.579203 594.6768,22.778428 542.3509,103.3886 497.44962,7.5756318 478.71129,45.759398 542.70445,103.30022"
     id="path3876"
     inkscape:connector-curvature="0"
     sodipodi:nodetypes="cccccccc" />
  <path
     style="fill:none;stroke:#db2c27;stroke-width:1px;stroke-linecap:butt;stroke-linejoin:miter;stroke-opacity:1"
     d="M 479.06484,45.759398 404.11153,141.92592 412.59681,26.667515 z"
     id="path3878"
     inkscape:connector-curvature="0" />
  <path
     style="fill:none;stroke:#db2c27;stroke-width:1px;stroke-linecap:butt;stroke-linejoin:miter;stroke-opacity:1"
     d="m 403.75797,142.63303 -71.30167,21.43287 57.15954,17.10445 -62.2254,0.53033 1.41421,120.03137 -86.85712,40.24138"
     id="path3880"
     inkscape:connector-curvature="0"
     sodipodi:nodetypes="cccccc" />
  <path
     style="fill:none;stroke:#db2c27;stroke-width:1px;stroke-linecap:butt;stroke-linejoin:miter;stroke-opacity:1"
     d="m 243.18497,341.69652 85.79646,-159.81907 -51.44202,-40.65864 53.74012,22.62742 22.62741,-120.561706 49.85103,98.641396"
     id="path3882"
     inkscape:connector-curvature="0"
     sodipodi:nodetypes="cccccc" />
  <path
     style="fill:none;stroke:#db2c27;stroke-width:1px;stroke-linecap:butt;stroke-linejoin:miter;stroke-opacity:1"
     d="M 412.24325,26.313962 353.19984,41.870311 277.89297,140.51171 254.28332,97.73479"
     id="path3884"
     inkscape:connector-curvature="0"
     sodipodi:nodetypes="cccc" />
  <path
     style="fill:none;stroke:#db2c27;stroke-width:1px;stroke-linecap:butt;stroke-linejoin:miter;stroke-opacity:1"
     d="M 253.94753,97.332252 294.15642,0.85811739 353.13918,42.206097"
     id="path3886"
     inkscape:connector-curvature="0"
     sodipodi:nodetypes="ccc" />
  <path
     style="fill:none;stroke:#db2c27;stroke-width:1px;stroke-linecap:butt;stroke-linejoin:miter;stroke-opacity:1"
     d="M 411.18259,26.313962 422.84986,-0.20254278"
     id="path3888"
     inkscape:connector-curvature="0" />
  <path
     style="fill:none;stroke:#db2c27;stroke-width:1px;stroke-linecap:butt;stroke-linejoin:miter;stroke-opacity:1"
     d="M 479.4184,46.466505 447.59859,-0.20254278"
     id="path3890"
     inkscape:connector-curvature="0" />
  <path
     style="fill:none;stroke:#db2c27;stroke-width:1px;stroke-linecap:butt;stroke-linejoin:miter;stroke-opacity:1"
     d="M 594.32325,23.131981 497.44962,6.868525 490.37855,0.85811739"
     id="path3892"
     inkscape:connector-curvature="0"
     sodipodi:nodetypes="ccc" />
  <path
     style="fill:none;stroke:#db2c27;stroke-width:1px;stroke-linecap:butt;stroke-linejoin:miter;stroke-opacity:1"
     d="M 760.25,-1.0552725e-6 732.25,52.249999 710.5,-1.0552725e-6 693.25,45.999999 l -71.75,31"
     id="path3894"
     inkscape:connector-curvature="0" />
  <path
     style="fill:none;stroke:#db2c27;stroke-width:1px;stroke-linecap:butt;stroke-linejoin:miter;stroke-opacity:1"
     d="m 732,53.249999 -38.75,-6.75 L 766.5,197.25"
     id="path3896"
     inkscape:connector-curvature="0" />
  <path
     style="fill:none;stroke:#db2c27;stroke-width:1px;stroke-linecap:butt;stroke-linejoin:miter;stroke-opacity:1"
     d="m 550.25,0.24999894 44.5,22.50000006 62,-22.50000006"
     id="path3898"
     inkscape:connector-curvature="0" />
  <path
     style="fill:none;stroke:#db2c27;stroke-width:1px;stroke-linecap:butt;stroke-linejoin:miter;stroke-opacity:1"
     d="M 897.75,87.749999 796.75,0.24999894"
     id="path3900"
     inkscape:connector-curvature="0" />
  <path
     style="fill:none;stroke:#db2c27;stroke-width:1px;stroke-linecap:butt;stroke-linejoin:miter;stroke-opacity:1"
     d="M 195,-1.0552734e-6 254.25,97.749999 227,145.25 189,-1.0552734e-6"
     id="path3902"
     inkscape:connector-curvature="0"
     sodipodi:nodetypes="cccc" />
  <path
     style="fill:none;stroke:#db2c27;stroke-width:1px;stroke-linecap:butt;stroke-linejoin:miter;stroke-opacity:1"
     d="m 278.25,141.5 -50.25,5.25 76.5,50 L 242.85355,341.70711 187.75,302.25 304.88388,197.21967 327.21967,181.70711"
     id="path3904"
     inkscape:connector-curvature="0"
     sodipodi:nodetypes="ccccccc" />
  <path
     style="fill:none;stroke:#db2c27;stroke-width:1px;stroke-linecap:butt;stroke-linejoin:miter;stroke-opacity:1"
     d="m 227.5,147 -40.25,155.75 23,73.5 8,41.25 25.03033,-76.04289 L 306,345.25 219,416.5 126.75,519.75"
     id="path3906"
     inkscape:connector-curvature="0"
     sodipodi:nodetypes="cccccccc" />
  <path
     style="fill:none;stroke:#db2c27;stroke-width:1px;stroke-linecap:butt;stroke-linejoin:miter;stroke-opacity:1"
     d="M 242.64645,341.32322 210.25,377 l -133,63.75"
     id="path3908"
     inkscape:connector-curvature="0"
     sodipodi:nodetypes="ccc" />
  <path
     style="fill:none;stroke:#db2c27;stroke-width:1px;stroke-linecap:butt;stroke-linejoin:miter;stroke-opacity:1"
     d="m 210.25,377.25 -78,-71.5"
     id="path3910"
     inkscape:connector-curvature="0"
     sodipodi:nodetypes="cc" />
  <path
     style="fill:none;stroke:#db2c27;stroke-width:1px;stroke-linecap:butt;stroke-linejoin:miter;stroke-opacity:1"
     d="m 132,305.25 55.75,-2.75 -44.5,-42.75"
     id="path3914"
     inkscape:connector-curvature="0"
     sodipodi:nodetypes="ccc" />
  <path
     style="fill:none;stroke:#db2c27;stroke-width:1px;stroke-linecap:butt;stroke-linejoin:miter;stroke-opacity:1"
     d="m 143,259.25 83.75,-113 L 44.5,220.5"
     id="path3916"
     inkscape:connector-curvature="0"
     sodipodi:nodetypes="ccc" />
  <path
     style="fill:none;stroke:#db2c27;stroke-width:1px;stroke-linecap:butt;stroke-linejoin:miter;stroke-opacity:1"
     d="M 228,146.5 80,-1.0552727e-6"
     id="path3918"
     inkscape:connector-curvature="0" />
  <path
     style="fill:none;stroke:#db2c27;stroke-width:1px;stroke-linecap:butt;stroke-linejoin:miter;stroke-opacity:1"
     d="M 190.03495,662.88685 126.74889,520.05128 77.428193,440.67854 132.22897,305.62114 142.65879,259.6592 44.901281,221.12188 l 0,-220.97086939"
     id="path3920"
     inkscape:connector-curvature="0"
     sodipodi:nodetypes="ccccccc" />
  <path
     style="fill:none;stroke:#db2c27;stroke-width:1px;stroke-linecap:butt;stroke-linejoin:miter;stroke-opacity:1"
     d="m 143.18912,259.30565 -100.055606,33.23401 34.117901,148.66921 -59.927299,120.73848 109.601554,-42.4264 -3.53554,55.15432 -105.358907,-12.02081 79.903066,83.4386 25.809401,-70.71068 66.29126,87.50447 -40.12831,68.41257 L 98.287843,646.09306 32.968855,756.84366 150.43697,731.65298 119.50105,863.52839 32.526912,757.10882 0,785.39309"
     id="path3922"
     inkscape:connector-curvature="0"
     sodipodi:nodetypes="ccccccccccccccccc" />
  <path
     style="fill:none;stroke:#db2c27;stroke-width:1px;stroke-linecap:butt;stroke-linejoin:miter;stroke-opacity:1"
     d="M 0.70710678,377.39248 43.487067,292.53966 24.748737,239.50666 0,231.72848"
     id="path3924"
     inkscape:connector-curvature="0" />
  <path
     style="fill:none;stroke:#db2c27;stroke-width:1px;stroke-linecap:butt;stroke-linejoin:miter;stroke-opacity:1"
     d="M 44.901281,220.76833 43.84062,291.83256"
     id="path3926"
     inkscape:connector-curvature="0" />
  <path
     style="fill:none;stroke:#db2c27;stroke-width:1px;stroke-linecap:butt;stroke-linejoin:miter;stroke-opacity:1"
     d="M 38.183766,0.15101061 -0.35355339,84.296718"
     id="path3928"
     inkscape:connector-curvature="0" />
  <path
     style="fill:none;stroke:#db2c27;stroke-width:1px;stroke-linecap:butt;stroke-linejoin:miter;stroke-opacity:1"
     d="M 17.67767,561.77058 0,570.43263"
     id="path3930"
     inkscape:connector-curvature="0"
     sodipodi:nodetypes="cc" />
  <path
     style="fill:none;stroke:#db2c27;stroke-width:1px;stroke-linecap:butt;stroke-linejoin:miter;stroke-opacity:1"
     d="M 1.4142136,819.33422 119.50104,863.88194 115.25841,998.58579"
     id="path3932"
     inkscape:connector-curvature="0"
     sodipodi:nodetypes="ccc" />
  <path
     style="fill:none;stroke:#db2c27;stroke-width:1px;stroke-linecap:butt;stroke-linejoin:miter;stroke-opacity:1"
     d="M 0,855.75022 67.175144,1000.3536"
     id="path3934"
     inkscape:connector-curvature="0" />
  <path
     style="fill:none;stroke:#db2c27;stroke-width:1px;stroke-linecap:butt;stroke-linejoin:miter;stroke-opacity:1"
     d="M 204.00031,1001.0607 249.77291,950.91674 119.8546,862.82128"
     id="path3936"
     inkscape:connector-curvature="0"
     sodipodi:nodetypes="ccc" />
  <path
     style="fill:none;stroke:#db2c27;stroke-width:1px;stroke-linecap:butt;stroke-linejoin:miter;stroke-opacity:1"
     d="m 150.26019,731.65298 83.4386,97.93429 15.55635,121.26881 91.21678,8.13173 25.45584,39.95153"
     id="path3938"
     inkscape:connector-curvature="0"
     sodipodi:nodetypes="ccccc" />
  <path
     style="fill:none;stroke:#db2c27;stroke-width:1px;stroke-linecap:butt;stroke-linejoin:miter;stroke-opacity:1"
     d="m 259.86174,998.93934 -9.89949,-48.5226"
     id="path3940"
     inkscape:connector-curvature="0"
     sodipodi:nodetypes="cc" />
  <path
     style="fill:none;stroke:#db2c27;stroke-width:1px;stroke-linecap:butt;stroke-linejoin:miter;stroke-opacity:1"
     d="M 341.53258,958.2807 234.05234,830.29437 379.00924,816.15224 277.18586,697.00474 234.4059,829.58727"
     id="path3942"
     inkscape:connector-curvature="0" />
  <path
     style="fill:none;stroke:#db2c27;stroke-width:1px;stroke-linecap:butt;stroke-linejoin:miter;stroke-opacity:1"
     d="m 361.68512,675.31667 18.03122,141.18912 73.53911,60.45763 -112.07643,81.49926 38.18377,-142.31044"
     id="path3944"
     inkscape:connector-curvature="0"
     sodipodi:nodetypes="ccccc" />
  <path
     style="fill:none;stroke:#db2c27;stroke-width:1px;stroke-linecap:butt;stroke-linejoin:miter;stroke-opacity:1"
     d="m 406.5864,998.93934 47.72971,-121.97592 60.45763,120.91526"
     id="path3946"
     inkscape:connector-curvature="0" />
  <path
     style="fill:none;stroke:#db2c27;stroke-width:1px;stroke-linecap:butt;stroke-linejoin:miter;stroke-opacity:1"
     d="m 1151,999 19,-24.5 -49.75,-12.125 -187.5,-60.5 -18.125,51.5 L 937,928 l 179.5,34 -127,38.5 -75,-47 -30.5,47"
     id="path3948"
     inkscape:connector-curvature="0"
     sodipodi:nodetypes="cccccccccc" />
  <path
     style="fill:none;stroke:#db2c27;stroke-width:1px;stroke-linecap:butt;stroke-linejoin:miter;stroke-opacity:1"
     d="M 933.5,901.5 796,999"
     id="path3950"
     inkscape:connector-curvature="0" />
  <path
     style="fill:none;stroke:#db2c27;stroke-width:1px;stroke-linecap:butt;stroke-linejoin:miter;stroke-opacity:1"
     d="m 633,976.5 64,24"
     id="path3952"
     inkscape:connector-curvature="0"
     sodipodi:nodetypes="cc" />
  <path
     style="fill:none;stroke:#db2c27;stroke-width:1px;stroke-linecap:butt;stroke-linejoin:miter;stroke-opacity:1"
     d="M 1324.3536,922.03033 1294.5,999"
     id="path3954"
     inkscape:connector-curvature="0"
     sodipodi:nodetypes="cc" />
  <path
     style="fill:none;stroke:#db2c27;stroke-width:1px;stroke-linecap:butt;stroke-linejoin:miter;stroke-opacity:1"
     d="M 1170.6768,974.56066 1238,1001.5"
     id="path3956"
     inkscape:connector-curvature="0"
     sodipodi:nodetypes="cc" />
  <path
     style="fill:none;stroke:#db2c27;stroke-width:1px;stroke-linecap:butt;stroke-linejoin:miter;stroke-opacity:1"
     d="M 1695.2322,971.64645 1860.5,957 1815,1001"
     id="path3958"
     inkscape:connector-curvature="0"
     sodipodi:nodetypes="ccc" />
  <path
     style="fill:none;stroke:#db2c27;stroke-width:1px;stroke-linecap:butt;stroke-linejoin:miter;stroke-opacity:1"
     d="M 1926.3839,961.73744 1971.5,998.5"
     id="path3960"
     inkscape:connector-curvature="0"
     sodipodi:nodetypes="cc" />
  <path
     style="fill:none;stroke:#db2c27;stroke-width:1px;stroke-linecap:butt;stroke-linejoin:miter;stroke-opacity:1"
     d="M 1860.9393,957.61612 1925.5,962 l -5,37.5"
     id="path3962"
     inkscape:connector-curvature="0"
     sodipodi:nodetypes="ccc" />
  <path
     style="fill:none;stroke:#db2c27;stroke-width:1px;stroke-linecap:butt;stroke-linejoin:miter;stroke-opacity:1"
     d="m 1710,999.5 -15,-27.5 -20,30"
     id="path3964"
     inkscape:connector-curvature="0" />
  <path
     style="fill:none;stroke:#db2c27;stroke-width:1px;stroke-linecap:butt;stroke-linejoin:miter;stroke-opacity:1"
     d="m 1604.1161,924.5 3.3839,75"
     id="path3966"
     inkscape:connector-curvature="0"
     sodipodi:nodetypes="cc" />
  <path
     style="fill:none;stroke:#db2c27;stroke-width:1px;stroke-linecap:butt;stroke-linejoin:miter;stroke-opacity:1"
     d="M 898.73272,303.49982 880.7015,346.63333"
     id="path3968"
     inkscape:connector-curvature="0" />
  <path
     style="fill:none;stroke:#db2c27;stroke-width:1px;stroke-linecap:butt;stroke-linejoin:miter;stroke-opacity:1"
     d="m 1927.9266,501.84327 24.0417,70.71068 -38.8909,42.07285 47.3762,39.59798 -39.598,22.62742 79.1959,62.2254"
     id="path3970"
     inkscape:connector-curvature="0" />
  <path
     style="fill:none;stroke:#db2c27;stroke-width:1px;stroke-linecap:butt;stroke-linejoin:miter;stroke-opacity:1"
     d="m 1964.7391,458.67055 4.5533,84.18492 -17.3241,28.99137 9.1924,82.7315 39.2444,-64.70027"
     id="path3972"
     inkscape:connector-curvature="0"
     sodipodi:nodetypes="ccccc" />
  <path
     style="fill:none;stroke:#db2c27;stroke-width:1px;stroke-linecap:butt;stroke-linejoin:miter;stroke-opacity:1"
     d="m 2000.7586,732.71364 -40.305,-78.84241"
     id="path3974"
     inkscape:connector-curvature="0" />
  <path
     style="fill:none;stroke:#db2c27;stroke-width:1px;stroke-linecap:butt;stroke-linejoin:miter;stroke-opacity:1"
     d="m 2000.0515,523.76358 -30.4056,18.38478 30.4056,48.08326"
     id="path3976"
     inkscape:connector-curvature="0" />
  <path
     style="fill:none;stroke:#db2c27;stroke-width:1px;stroke-linecap:butt;stroke-linejoin:miter;stroke-opacity:1"
     d="m 2001.25,225.5 -36,30 34.75,11.5"
     id="path3978"
     inkscape:connector-curvature="0" />
  <path
     style="fill:none;stroke:#db2c27;stroke-width:1px;stroke-linecap:butt;stroke-linejoin:miter;stroke-opacity:1"
     d="m 2001.1122,474.26611 -37.1231,-14.49569 -2.4749,-101.82338 -85.2064,-48.43681"
     id="path3980"
     inkscape:connector-curvature="0" />
  <path
     style="fill:none;stroke:#db2c27;stroke-width:1px;stroke-linecap:butt;stroke-linejoin:miter;stroke-opacity:1"
     d="m 2001.4657,407.44452 -40.6586,-50.55814 3.8891,-100.76271 4.5962,-90.50967 31.1127,21.2132"
     id="path3982"
     inkscape:connector-curvature="0" />
  <path
     style="fill:none;stroke:#db2c27;stroke-width:1px;stroke-linecap:butt;stroke-linejoin:miter;stroke-opacity:1"
     d="m 2001.4657,279.10464 -39.9515,77.78174 39.598,16.61701"
     id="path3986"
     inkscape:connector-curvature="0" />
</svg>
